<svg xmlns="http://www.w3.org/2000/svg" width="102" height="46" viewBox="0 0 102 46" fill="none"><path d="M16.4333 29.8094C16.2045 29.4176 15.8724 29.0377 15.4388 28.6677C15.0032 28.2977 14.6173 28.0034 14.2792 27.7866C13.941 27.5698 13.4637 27.3351 12.8431 27.0844C12.2225 26.8338 11.7332 26.6489 11.3752 26.5295C11.0152 26.4102 10.4881 26.2411 9.79193 26.0243C8.0953 25.5012 6.94764 25.0179 6.34894 24.5723C5.75025 24.1268 5.4519 23.544 5.4519 22.826C5.4519 22.1517 5.71842 21.6027 6.25148 21.1771C6.78454 20.7534 7.51848 20.5406 8.45531 20.5406C10.4563 20.5406 11.9142 21.5192 12.8292 23.4784L16.6162 21.2904C15.8326 19.6813 14.7386 18.4243 13.3364 17.5213C11.9321 16.6182 10.3051 16.1667 8.4573 16.1667C6.39071 16.1667 4.62248 16.7813 3.15259 18.0106C1.6847 19.2398 0.948761 20.8887 0.948761 22.9552C0.948761 23.9995 1.13374 24.9144 1.5037 25.6981C1.87365 26.4818 2.41268 27.1282 3.11878 27.6394C3.82488 28.1506 4.53297 28.5583 5.24106 28.8626C5.94716 29.1669 6.81238 29.4713 7.83673 29.7756C9.68651 30.2987 10.9694 30.782 11.6875 31.2276C12.4055 31.6731 12.7655 32.2996 12.7655 33.1052C12.7655 33.8014 12.4711 34.3782 11.8844 34.8356C11.2976 35.2931 10.3727 35.5219 9.1097 35.5219C6.49812 35.5219 4.74579 34.3583 3.85472 32.0291L0 34.2827C0.630518 36.0231 1.71851 37.3995 3.26398 38.4119C4.80944 39.4243 6.71293 39.9295 8.97643 39.9295C11.4349 39.9295 13.4318 39.3089 14.9654 38.0698C16.4989 36.8286 17.2667 35.1539 17.2667 33.0435C17.2667 32.3911 17.1851 31.7865 17.022 31.2315C16.8589 30.6766 16.662 30.2032 16.4352 29.8114L16.4333 29.8094Z" fill="#354C3A"></path><path d="M28.8527 22.6947C26.5673 22.6947 24.805 23.4903 23.5659 25.0775V23.1522H19.3551V46H23.5659V37.5467C24.807 39.1359 26.5693 39.9295 28.8527 39.9295C31.1361 39.9295 32.9262 39.0981 34.4836 37.4333C36.039 35.7685 36.8167 33.7278 36.8167 31.3131C36.8167 28.8984 36.039 26.8577 34.4836 25.1929C32.9282 23.5281 31.0505 22.6967 28.8527 22.6967V22.6947ZM31.3171 34.6248C30.4578 35.4841 29.3758 35.9137 28.069 35.9137C26.7622 35.9137 25.6862 35.4841 24.8369 34.6248C23.9875 33.7656 23.5639 32.6617 23.5639 31.3111C23.5639 29.9606 23.9875 28.8586 24.8369 27.9974C25.6862 27.1381 26.7622 26.7085 28.069 26.7085C29.3758 26.7085 30.4558 27.1381 31.3171 27.9974C32.1763 28.8567 32.606 29.9606 32.606 31.3111C32.606 32.6617 32.1763 33.7656 31.3171 34.6248Z" fill="#354C3A"></path><path d="M43.3447 23.1522H39.1339V39.472H43.3447V31.6711C43.3447 30.1038 43.8499 28.984 44.8623 28.3097C45.8747 27.6354 47.0224 27.3748 48.3053 27.526V22.826C47.1954 22.826 46.189 23.0865 45.2859 23.6096C44.3829 24.1327 43.7365 24.9144 43.3447 25.9607V23.1522Z" fill="#354C3A"></path><path d="M57.2499 22.6947C54.8352 22.6947 52.7945 23.5261 51.1297 25.1909C49.4649 26.8557 48.6335 28.8945 48.6335 31.3111C48.6335 33.7278 49.4649 35.7665 51.1297 37.4313C52.7945 39.0961 54.8352 39.9275 57.2499 39.9275C59.6645 39.9275 61.7093 39.0961 63.386 37.4313C65.0608 35.7665 65.9001 33.7258 65.9001 31.3111C65.9001 28.8964 65.0627 26.8557 63.386 25.1909C61.7093 23.5261 59.6645 22.6947 57.2499 22.6947ZM60.4164 34.5433C59.5671 35.3926 58.5129 35.8162 57.2499 35.8162C55.9869 35.8162 54.9366 35.3926 54.0993 34.5433C53.2619 33.6939 52.8422 32.6179 52.8422 31.3111C52.8422 30.0043 53.2619 28.9283 54.0993 28.079C54.9366 27.2296 55.9869 26.806 57.2499 26.806C58.5129 26.806 59.5671 27.2296 60.4164 28.079C61.2657 28.9283 61.6894 30.0043 61.6894 31.3111C61.6894 32.6179 61.2657 33.6939 60.4164 34.5433Z" fill="#354C3A"></path><path d="M78.9878 31.9635C78.9878 33.3121 78.6617 34.3245 78.0093 34.9987C77.3569 35.673 76.4857 36.0112 75.3977 36.0112C74.4191 36.0112 73.6354 35.7227 73.0467 35.1459C72.4599 34.5691 72.1655 33.7377 72.1655 32.6497V23.1522H67.9548V33.1728C67.9548 35.2832 68.5376 36.938 69.7011 38.1334C70.8647 39.3308 72.3386 39.9295 74.1247 39.9295C76.3444 39.9295 77.9655 39.1677 78.9878 37.6441V39.472H83.1986V23.1522H78.9878V31.9655V31.9635Z" fill="#354C3A"></path><path d="M101.921 7.42699C101.76 4.82337 100.752 2.34903 99.6179 0C99.244 1.43209 98.2117 2.60959 97.0422 3.51459C95.8726 4.4196 94.5479 5.10183 93.3128 5.91733C92.0776 6.73282 90.9021 7.71938 90.2218 9.03412C89.649 10.14 89.464 11.415 89.5018 12.6581C89.5396 13.9032 89.8717 15.3035 90.3949 16.5049C90.6335 15.5999 91.3018 14.7187 92.3481 13.939C98.2037 9.56717 98.88 6.04263 98.9039 5.90539C98.4046 9.09776 96.8393 10.683 95.3296 12.1469C94.2317 13.213 93.3605 13.9967 92.2884 15.0887C90.7111 16.6898 90.3213 18.3706 90.2238 19.1363L89.3248 19.4068C89.2174 18.9394 88.7698 17.4775 87.1567 16.2702C86.1742 15.5362 85.3925 15.0191 84.394 14.307C83.0216 13.3304 81.5915 12.2623 80.8118 9.79392C80.8476 9.89934 81.8063 12.6104 86.9718 15.3671C87.8927 15.8584 88.5292 16.477 88.8275 17.1652C89.098 16.1528 89.1915 15.0012 89.0722 14.0106C88.9528 13.0201 88.6525 12.0336 88.0657 11.226C87.3676 10.2673 86.3174 9.62684 85.2433 9.12959C84.1673 8.63233 83.0375 8.25044 82.0012 7.67562C80.9649 7.10079 80.0062 6.29126 79.5368 5.20327C78.9222 7.20024 78.421 9.28075 78.606 11.3633C78.7909 13.4458 79.7636 15.5481 81.5378 16.6521C83.3995 17.8116 85.8798 17.2428 87.3099 17.4457C88.5431 17.6207 89.0264 19.0946 89.1298 19.4645L87.837 19.8544V23.1502H84.9967V27.1978H87.837V33.9863C87.837 36.228 88.4297 37.7834 89.6152 38.6546C90.8006 39.5238 92.8414 39.7963 95.7354 39.4701V35.6511C94.9298 35.6949 94.2555 35.7009 93.7125 35.6671C93.1675 35.6352 92.7538 35.488 92.4714 35.2275C92.189 34.9669 92.0477 34.5532 92.0477 33.9863V27.1978H95.7354V23.1502H92.0477V18.5814L90.5142 19.0448C90.6574 18.3129 91.089 16.9345 92.3242 16.5645C94.0507 16.0474 97.2192 16.2821 99.2997 14.5039C101.283 12.8073 102.086 10.0306 101.925 7.42699H101.921Z" fill="#354C3A"></path></svg>