<svg width="114" height="32" viewBox="0 0 114 32" fill="none" xmlns="http://www.w3.org/2000/svg">
<path d="M26.805 12.6175C26.1427 11.7006 25.6697 10.8785 25.6697 10.088C25.6697 8.31741 27.2465 6.89459 29.6747 6.89459C32.1344 6.89459 33.6166 9.26595 33.6166 16.5381C33.6166 22.7037 29.7693 31.873 22.9892 31.873C18.2904 31.873 17.3129 28.4898 19.8987 23.0199L22.2639 17.9926C22.39 17.7396 22.4216 17.4235 22.4216 17.2021C22.4216 16.8543 22.2639 16.5065 21.7593 16.5065C21.3494 16.5065 20.9394 16.9176 20.6241 17.3602L11.8257 29.7229C10.7851 31.1774 9.23983 31.873 7.94688 31.873C5.36099 31.873 3.46888 30.2288 3.46888 27.0986C3.46888 26.5295 3.50041 25.9288 3.62655 25.2648L6.43319 11.163C6.65394 9.92994 6.21245 9.23434 5.42406 9.23434C4.69875 9.23434 3.97344 9.70861 3.81577 10.9101L3.05892 16.6646C2.90124 18.0242 2.30207 18.5933 1.29295 18.5933C0.725311 18.5933 0 18.0874 0 17.2654C0 12.902 3.09046 6.89459 8.16763 6.89459C11.7311 6.89459 13.1817 8.15932 13.1817 10.0564C13.1817 11.416 12.3934 13.0285 11.2266 14.8624L6.65394 22.1346C5.89709 23.3044 5.4556 24 5.4556 24.8537C5.4556 25.8023 6.02323 26.4663 7.1585 26.4663C7.97842 26.4663 8.51452 25.8971 9.52365 24.3795L16.7137 13.5976C17.7228 12.08 18.9527 11.005 20.3718 11.005C21.5701 11.005 22.3585 11.6373 22.8315 13.6609L25.1021 23.6839C25.4805 25.2964 26.1743 26.3398 27.4672 26.3398C28.3502 26.3398 29.0755 26.0552 29.9585 24.4111L31.1884 22.1346C31.5983 21.4073 31.8506 20.8066 31.8506 20.2375C31.8506 19.7632 31.6614 19.3205 31.3145 18.8463L26.805 12.6175Z" fill="#2F4C78"/>
<path d="M35.6801 31.6596V31.5319C35.8923 30.5957 36.5714 28.0426 36.5714 25.4894L36.6138 16.6383C36.6138 14.0851 35.8923 11.5319 35.6801 10.5957V10.4681H40.9429V25.4894C40.9429 28.0426 41.6644 30.5957 41.8341 31.5319V31.6596H35.6801Z" fill="#2F4C78"/>
<path d="M44.7755 31.6596V31.5319C44.9877 30.5957 45.7092 28.0426 45.7092 25.4894V6.76596C45.7092 4.21276 44.9877 1.74468 44.6482 0.893616V0.723403L45.5395 0.595745L50.1232 0V25.4894C50.1232 28.0426 50.8022 30.5957 51.0144 31.5319V31.6596H44.7755Z" fill="#2F4C78"/>
<path d="M53.5473 31.6596V31.5319C53.7596 30.5957 54.4811 28.0426 54.4811 25.4894V6.76596C54.4811 4.21276 53.7596 1.74468 53.42 0.893616V0.723403L54.3113 0.595745L58.895 0V25.4894C58.895 28.0426 59.574 30.5957 59.7863 31.5319V31.6596H53.5473Z" fill="#2F4C78"/>
<path d="M72.1656 32C66.436 32 61.725 27.9574 61.725 21.0213C61.725 14.1277 66.436 10.2128 72.1656 10.2128C77.8952 10.2128 82.6911 14.1277 82.6911 21.0213C82.6911 27.9574 77.8952 32 72.1656 32ZM72.1656 30.5106C75.7731 30.5106 77.7679 26.0426 77.7679 21.0213C77.7679 16.0426 75.7731 11.7021 72.1656 11.7021C68.5581 11.7021 66.6482 16.0426 66.6482 21.0213C66.6482 26 68.5581 30.5106 72.1656 30.5106Z" fill="#2F4C78"/>
<path d="M113.532 10.4681V10.6383C112.938 11.5745 112.047 13.1064 111.325 15.1064L105.808 31.6596H102.667L97.9561 18.4681L93.4149 31.6596H90.444L84.9266 16.1702C84.0777 13.7872 82.8469 11.5319 82.2103 10.5957V10.4681H89.1707V10.5957C88.9161 11.5319 88.9161 14 89.7225 16.4681L93.33 27.3191L97.1073 16.0851C96.2585 13.7447 95.0701 11.5319 94.4335 10.5957V10.4681H101.394V10.5957C101.139 11.5319 101.139 14 101.946 16.4681L105.553 27.2766L109.118 16.8085C109.967 14.2128 109.585 11.617 109.246 10.6383V10.4681H113.532Z" fill="#2F4C78"/>
</svg>
